PathFileType	4	(X/Y/Z)	C:\Users\Graham\Documents\MATLAB\MOtoNMS_v2_2\MyData\ElaboratedData\S1\17-05-18\dynamicElaborations\rightStSt\\ET2\ET2.trc
DataRate	CameraRate	NumFrames	NumMarkers	Units	OrigDataRate	DataStartFrame
100	100	9	29	mm	100	106
Frame#	Time	V_Sacral			R_ASIS			L_ASIS			R_Knee_Lat			R_Thigh_Upper			R_Thigh_Front			R_Thigh_Rear			L_Knee_Lat			L_Thigh_Upper			L_Thigh_Front			L_Thigh_Rear			R_Ankle_Lat			R_Shank_Upper			R_Shank_Front			R_Shank_Rear			L_Ankle_Lat			L_Shank_Upper			L_Shank_Front			L_Shank_Rear			R_Heel			R_MTP1			R_MTP5			L_Heel			L_MTP1			L_MTP5			Clavicle			C7			R_Acromium			L_Acromium		
		X1	Y1	Z1	X2	Y2	Z2	X3	Y3	Z3	X4	Y4	Z4	X5	Y5	Z5	X6	Y6	Z6	X7	Y7	Z7	X8	Y8	Z8	X9	Y9	Z9	X10	Y10	Z10	X11	Y11	Z11	X12	Y12	Z12	X13	Y13	Z13	X14	Y14	Z14	X15	Y15	Z15	X16	Y16	Z16	X17	Y17	Z17	X18	Y18	Z18	X19	Y19	Z19	X20	Y20	Z20	X21	Y21	Z21	X22	Y22	Z22	X23	Y23	Z23	X24	Y24	Z24	X25	Y25	Z25	X26	Y26	Z26	X27	Y27	Z27	X28	Y28	Z28	X29	Y29	Z29	

202	2.010000	-39.635979	1024.864780	-20.039081	268.494280	1031.982725	124.411234	272.261383	1028.756871	-131.159054	270.369565	539.266223	173.768359	280.307768	885.640299	163.465746	333.740093	770.509761	142.376498	273.733263	757.094650	190.303101	266.303658	531.980882	-140.365794	315.322245	858.126338	-144.244467	333.109347	745.046624	-87.311116	305.328661	732.930676	-167.547117	-45.175621	256.308661	141.856695	162.953786	353.546708	139.504963	66.622586	303.560436	73.211654	51.317818	301.916212	154.151582	201.467607	97.863477	-105.732407	292.813868	318.036214	-97.827293	252.543810	210.206675	-42.150891	245.914581	205.685565	-123.184311	-130.642950	270.254032	79.895894	32.937950	116.386567	55.950176	17.871526	112.553580	133.735264	126.876449	59.698571	-57.602814	361.410715	60.879708	-27.339377	345.048484	52.436680	-114.403512	287.767160	1462.429133	-9.882387	147.783265	1572.343063	-10.844330	237.461050	1494.288179	186.102832	230.183578	1498.284763	-219.583441	
203	2.020000	-40.913511	1026.033472	-19.725213	267.579278	1033.151304	123.584640	271.026018	1029.701460	-132.028613	277.061989	542.288335	172.980160	280.766151	888.844161	163.364073	335.962101	774.621083	141.849760	276.499096	760.158671	190.336766	259.142399	531.752606	-140.430634	313.000920	857.410899	-145.232610	329.730684	744.419239	-87.945861	301.259237	732.336596	-168.025841	-32.005276	252.194634	141.778739	173.801956	354.163616	138.662432	78.220630	301.917424	73.054383	63.597682	299.689252	153.784100	191.979931	97.899229	-105.612151	284.597492	317.658942	-97.792899	243.544248	210.019879	-42.277051	237.091694	205.565775	-123.162290	-118.189914	263.238616	80.120048	49.876803	114.253878	56.310823	35.384300	110.605427	134.157396	117.329733	59.762773	-57.556351	351.939809	60.687293	-27.254065	335.521937	52.287147	-114.369104	287.073285	1463.492053	-10.389580	147.271084	1573.494685	-11.425291	236.628213	1495.391074	185.560811	229.786863	1499.603620	-220.113475	
204	2.030000	-42.244625	1027.099908	-19.313442	266.631240	1034.215203	122.777919	269.720275	1030.545253	-132.873811	283.236997	545.155703	172.199857	281.199595	891.848049	163.261700	338.054350	778.530355	141.218123	279.184776	763.074055	190.332924	252.015652	531.506123	-140.442397	310.583109	856.675760	-145.983364	326.212653	743.743098	-88.394001	297.179375	731.744524	-168.355141	-18.362436	247.223687	141.854071	184.792333	354.605956	137.935348	90.130206	299.762126	73.019004	76.150733	296.956287	153.555548	182.523075	97.929152	-105.484026	276.425665	317.272202	-97.636915	234.514724	209.820232	-42.335410	228.372653	205.420379	-123.048292	-105.171148	255.082183	80.556777	67.621161	111.795562	56.586656	53.741292	108.198201	134.543436	107.815829	59.821668	-57.512102	342.495605	60.489082	-27.152326	326.013595	52.145298	-114.324316	286.361327	1464.424601	-10.848567	146.748046	1574.527982	-11.950581	235.776094	1496.334843	185.063312	229.422507	1500.842258	-220.576265	
205	2.040000	-43.602956	1028.059564	-18.840375	265.646819	1035.166719	122.017223	268.354592	1031.272441	-133.665795	288.826762	547.845990	171.470269	281.620732	894.635429	163.129824	340.022609	782.216386	140.486686	281.758476	765.835160	190.300184	244.942360	531.237385	-140.408560	308.040490	855.920830	-146.469088	322.513447	742.997271	-88.647678	293.068096	731.145666	-168.525676	-4.277505	241.482004	142.074006	195.886949	354.899262	137.394434	102.384741	297.136477	73.098080	88.914578	293.803090	153.498469	173.089548	97.954222	-105.346131	268.297857	316.870708	-97.380356	225.476819	209.612030	-42.321889	219.743719	205.249501	-122.859748	-91.577083	245.825767	81.131000	86.230458	109.165041	56.867703	72.942931	105.481032	134.952340	98.330367	59.874281	-57.464596	333.070394	60.288873	-27.045097	316.520320	52.011377	-114.269398	285.634562	1465.209066	-11.252662	146.222227	1575.430577	-12.422821	234.889892	1497.097152	184.624376	229.094588	1501.959104	-220.970121	
206	2.050000	-44.962601	1028.909870	-18.340514	264.620728	1035.998411	121.329339	266.935674	1031.865819	-134.376652	293.786131	550.346025	170.818961	282.019571	897.206314	162.952475	341.847187	785.668311	139.678819	284.162890	768.441484	190.248746	237.932157	530.943888	-140.333796	305.356465	855.138050	-146.694345	318.619924	742.167706	-88.715579	288.907253	730.525016	-168.537721	10.246482	235.048550	142.427889	207.040457	355.032719	137.081530	115.015377	294.074405	73.275973	101.852784	290.286287	153.625750	163.671438	97.976865	-105.195999	260.207734	316.450441	-97.053489	216.459505	209.399488	-42.238622	211.176697	205.057778	-122.620801	-77.369463	235.553088	81.772407	105.716074	106.453717	57.243439	92.946275	102.557856	135.446044	88.866150	59.920672	-57.408008	323.655178	60.090583	-26.943074	307.037457	51.884203	-114.205531	284.895416	1465.832884	-11.597025	145.699608	1576.193831	-12.844766	233.957010	1497.665311	184.255043	228.799038	1502.919986	-221.297154	
207	2.060000	-46.303184	1029.649448	-17.843621	263.547317	1036.702820	120.738627	265.467306	1032.308021	-134.982175	298.100254	552.650187	170.255141	282.362548	899.570351	162.731525	343.483255	788.878727	138.835748	286.325666	770.892091	190.189303	230.987515	530.624445	-140.220624	302.529215	854.313799	-146.691266	314.551734	741.249326	-88.620547	284.684565	729.864955	-168.401426	25.230585	228.001568	142.904263	218.196433	354.967643	137.005864	128.035531	290.606149	73.535175	114.956269	286.440262	153.928536	154.261908	98.000021	-105.031525	252.146288	316.008377	-96.688556	207.490591	209.185852	-42.094031	202.638120	204.851836	-122.356255	-62.496056	224.393928	82.427233	126.033984	103.692753	57.790068	113.668028	99.490971	136.081189	79.415108	59.961467	-57.337418	314.241466	59.897787	-26.854719	297.559880	51.761675	-114.134466	284.145612	1466.288974	-11.879151	145.183703	1576.812751	-13.218887	232.968889	1498.036707	183.961872	228.526083	1503.700395	-221.562460	
208	2.070000	-47.614446	1030.277133	-17.372431	262.422091	1037.272748	120.263962	263.952867	1032.584495	-135.464359	301.784235	554.755138	169.770752	282.597312	901.737978	162.488190	344.869060	791.837815	138.011854	288.172567	773.180131	190.132688	224.106696	530.278868	-140.070939	299.572455	853.432704	-146.510560	310.355770	740.245680	-88.395292	280.395027	729.149356	-168.135942	40.711992	220.425235	143.492473	229.291266	354.655142	137.145871	141.429042	286.763833	73.861378	128.241348	282.288815	154.379306	144.856192	98.026096	-104.851846	244.104910	315.542366	-96.313233	198.589536	208.973223	-41.901608	194.098614	204.637752	-122.086569	-46.906946	212.518034	83.066533	147.091552	100.869334	58.561704	134.997099	96.313591	136.902264	69.970083	59.997440	-57.249933	304.822558	59.713501	-26.785487	288.083060	51.641389	-114.058046	283.386613	1466.575726	-12.098920	144.675727	1577.285700	-13.546738	231.922409	1498.217838	183.746727	228.262917	1504.286331	-221.772616	
209	2.080000	-48.898611	1030.791270	-16.941102	261.242867	1037.701885	119.916332	262.397795	1032.686914	-135.813284	304.875510	556.652967	169.344982	282.662869	903.712341	162.260437	345.940869	794.530645	137.266665	289.640314	775.288817	190.090162	217.286408	529.907736	-139.887869	296.513452	852.481782	-146.210596	306.093342	739.166751	-88.077238	276.041098	728.367361	-167.767645	56.732937	212.414653	144.184361	240.264434	354.057756	137.455523	155.146467	282.587436	74.246133	141.744491	277.858117	154.939298	135.452040	98.056155	-104.657959	236.077535	315.051298	-95.946885	189.763928	208.762908	-41.677895	185.539525	204.419370	-121.825454	-30.567154	200.121298	83.689411	168.764194	97.952887	59.586137	156.812207	93.047987	137.937409	60.526013	60.029258	-57.145319	295.394354	59.540129	-26.738175	278.603938	51.521142	-113.977824	282.620197	1466.696514	-12.258231	144.175252	1577.613855	-13.828298	230.820733	1498.222224	183.607740	227.996165	1504.673857	-221.933938	
210	2.090000	-50.169267	1031.189707	-16.554882	260.010431	1037.985483	119.697739	260.810776	1032.615526	-136.027960	307.422313	558.326255	168.950528	282.502835	905.484268	162.096521	346.649751	796.937665	136.655473	290.686384	777.190100	190.073930	210.523334	529.512394	-139.677166	293.388597	851.453844	-145.847077	301.824938	738.025970	-87.703488	271.631978	727.515948	-167.327697	73.328920	204.078187	144.975352	251.070304	353.167999	137.873967	169.112148	278.129919	74.687094	155.513691	273.187643	155.568144	126.049648	98.089630	-104.452832	228.061411	314.535609	-95.600314	181.009995	208.555848	-41.440348	176.955169	204.197940	-121.580409	-13.462221	187.407650	84.320720	190.916082	94.924265	60.864811	178.999842	89.725030	139.197164	51.080419	60.057434	-57.025926	285.955869	59.379380	-26.713729	269.121493	51.399225	-113.894934	281.848913	1466.658708	-12.360325	143.681122	1577.800458	-14.061549	229.673494	1498.067611	183.540967	227.713820	1504.867626	-222.050882	
